<svg width="474" height="419" viewBox="0 0 474 419" fill="none" xmlns="http://www.w3.org/2000/svg">
<path d="M288.223 351.355L291.551 323.902L385.555 299.777L374.74 267.333C382.274 245.726 395.499 235.133 419.663 245.704L461.227 271.524C465.266 274.034 468.557 277.582 470.755 281.799C472.953 286.016 473.977 290.746 473.72 295.495V295.495C473.466 300.262 471.93 304.872 469.273 308.839C466.616 312.805 462.937 315.98 458.625 318.03C412.095 340.086 352.791 348.525 288.223 351.355Z" fill="#FFB8B8"/>
<path d="M294.047 359.674L264.93 355.515L237.697 361.072C236.028 361.413 234.306 361.387 232.648 360.997C230.991 360.606 229.438 359.861 228.097 358.811C226.755 357.762 225.658 356.434 224.88 354.919C224.103 353.404 223.663 351.738 223.592 350.037V350.037C223.513 348.134 223.897 346.24 224.711 344.519C225.525 342.797 226.745 341.299 228.267 340.153L270.941 308C274.601 305.243 279.124 303.88 283.698 304.157C288.272 304.434 292.598 306.332 295.899 309.51L306.525 319.743C298.921 324.46 293.266 331.539 289.887 341.372C297.195 345.39 298.582 351.49 294.047 359.674Z" fill="#2F2E41"/>
<path d="M321.855 71.4529C336.727 71.4529 348.783 59.3971 348.783 44.5256C348.783 29.6541 336.727 17.5983 321.855 17.5983C306.984 17.5983 294.928 29.6541 294.928 44.5256C294.928 59.3971 306.984 71.4529 321.855 71.4529Z" fill="#FFB8B8"/>
<path d="M363.926 97.6265L303.613 122.999C308.515 98.3877 310.958 75.9676 303.613 62.2709L342.297 57.6954C340.376 68.2214 350.163 82.3177 363.926 97.6265Z" fill="#FFB8B8"/>
<path d="M261.603 350.523L239.141 348.859C225.381 291.48 218.336 237.244 221.411 187.747C221.846 180.521 225.062 173.744 230.386 168.839C235.709 163.933 242.726 161.281 249.963 161.437C256.917 161.595 263.563 164.34 268.602 169.135L297.648 196.776C310.601 209.007 320.656 223.978 327.079 240.595C335.305 262.14 332.352 274.219 312.713 272.167C300.442 270.799 289.156 264.799 281.159 255.391L259.939 230.73L261.603 350.523Z" fill="#FFB8B8"/>
<path d="M244.209 418.707C241.265 418.515 238.404 417.648 235.849 416.173C233.295 414.697 231.114 412.654 229.476 410.2C227.838 407.746 226.787 404.948 226.405 402.023C226.022 399.097 226.318 396.123 227.27 393.331L231.654 380.471L234.982 348.027C240.108 337.568 247.367 339.132 255.779 347.195C261.127 346.67 262.275 341.323 261.603 333.885L278.467 356.587C279.91 358.53 280.806 360.825 281.061 363.232C281.316 365.638 280.921 368.07 279.917 370.272L262.945 407.503C261.327 411.051 258.669 414.023 255.322 416.024C251.976 418.025 248.1 418.961 244.209 418.707V418.707Z" fill="#2F2E41"/>
<path d="M456.682 268.581C425.902 286.051 416.255 286.558 385.555 298.946L358.934 283.971C327.67 295.532 305.739 279.684 281.984 256.103C297.529 230.21 290.654 196.563 300.286 197.038L415.503 233.226L420.495 245.704L456.682 268.581Z" fill="#2F2E41"/>
<path d="M419.663 241.545C378.981 259.154 335.177 240.51 297.79 199.534L273.034 99.5545C272.742 98.4532 272.678 97.3036 272.846 96.1766C273.015 95.0496 273.413 93.9691 274.015 93.0017C274.617 92.0344 275.411 91.2006 276.348 90.5518C277.285 89.9031 278.345 89.4531 279.462 89.2296L308.189 83.4842L322.331 105.945L350.615 80.9886L380.653 90.8087C384.647 92.1144 388.211 94.4806 390.965 97.6546C393.718 100.829 395.558 104.691 396.287 108.829L419.663 241.545Z" fill="#C50E4F"/>
<path opacity="0.2" d="M355.044 326.303C352.848 325.466 350.886 324.115 349.32 322.363C347.754 320.612 346.632 318.51 346.046 316.234C345.461 313.959 345.43 311.576 345.956 309.286C346.482 306.996 347.549 304.866 349.068 303.074L368.085 280.644L381.396 288.131L374.542 316.074C374.046 318.096 373.126 319.989 371.842 321.629C370.559 323.268 368.942 324.616 367.099 325.583C365.255 326.551 363.227 327.115 361.149 327.239C359.07 327.363 356.99 327.044 355.044 326.303Z" fill="black"/>
<path d="M355.044 322.975C352.848 322.139 350.886 320.788 349.32 319.036C347.754 317.284 346.632 315.182 346.046 312.907C345.461 310.631 345.43 308.249 345.956 305.959C346.482 303.669 347.549 301.538 349.068 299.746L368.085 277.316L381.396 284.803L374.542 312.746C374.046 314.768 373.126 316.662 371.842 318.301C370.559 319.941 368.942 321.289 367.099 322.256C365.255 323.223 363.227 323.787 361.149 323.911C359.07 324.035 356.99 323.716 355.044 322.975V322.975Z" fill="#FFB8B8"/>
<path d="M384.723 291.458L364.758 278.148L393.874 200.782L383.059 91.8032L392.925 97.9691C398.219 101.278 402.787 105.628 406.349 110.756C409.912 115.883 412.396 121.68 413.651 127.797L429.646 205.773C422.647 241.715 410.981 273.338 384.723 291.458Z" fill="#C50E4F"/>
<path opacity="0.2" d="M372.661 167.922L382.644 217.836L374.433 247.028L372.661 167.922Z" fill="black"/>
<path d="M295.521 42.2165C295.521 42.2165 280.004 -8.56657 327.428 2.084C334.784 3.736 341.139 8.01191 346.195 13.6047C346.648 14.0938 347.202 14.4779 347.819 14.73C348.436 14.9821 349.101 15.0962 349.767 15.0641C357.343 15.0641 362.022 42.1358 346.871 54.0405C346.871 54.0405 349.962 38.0209 344.343 32.5624C343.332 31.6387 342.486 30.5496 341.842 29.3418C338.184 21.9638 325.889 19.542 317.41 20.1701C313.081 20.4908 312.702 28.0385 307.91 26.9843C297.006 24.5855 293.525 37.2171 295.521 42.2165Z" fill="#2F2E41"/>
<path d="M343.254 117.59L342.941 119.89L341.003 134.077L337.829 157.312L337.034 163.129C336.974 163.573 336.754 163.98 336.417 164.275C336.079 164.569 335.646 164.732 335.198 164.732H314.035C313.587 164.732 313.155 164.57 312.818 164.276C312.48 163.983 312.26 163.577 312.198 163.133L311.39 157.312L308.163 134.077L306.191 119.879L305.874 117.595C305.838 117.332 305.858 117.065 305.933 116.811C306.009 116.557 306.138 116.322 306.312 116.123C306.485 115.923 306.7 115.762 306.941 115.653C307.183 115.543 307.444 115.486 307.709 115.486H341.418C341.682 115.486 341.944 115.543 342.185 115.652C342.425 115.762 342.64 115.922 342.814 116.121C342.988 116.32 343.117 116.555 343.193 116.808C343.269 117.061 343.29 117.328 343.254 117.59V117.59Z" fill="#E6E6E6"/>
<path d="M309.943 109.33H339.294C339.537 109.33 339.778 109.378 340.003 109.471C340.228 109.565 340.433 109.701 340.605 109.873C340.777 110.045 340.913 110.25 341.006 110.475C341.1 110.699 341.148 110.941 341.148 111.184V113.633C341.148 114.124 340.952 114.596 340.605 114.943C340.257 115.291 339.786 115.486 339.294 115.486H309.943C309.451 115.486 308.98 115.291 308.632 114.943C308.284 114.596 308.089 114.124 308.089 113.633V111.184C308.089 110.94 308.137 110.699 308.23 110.475C308.323 110.25 308.46 110.045 308.632 109.873C308.804 109.701 309.008 109.565 309.233 109.471C309.458 109.378 309.699 109.33 309.943 109.33V109.33Z" fill="#3F3D56"/>
<path d="M345.906 118.564C331.756 120.108 317.48 120.108 303.331 118.564C303.087 118.564 302.846 118.516 302.622 118.423C302.397 118.33 302.192 118.193 302.02 118.021C301.848 117.849 301.712 117.645 301.618 117.42C301.525 117.195 301.477 116.954 301.477 116.711V114.262C301.477 114.018 301.525 113.777 301.618 113.552C301.712 113.328 301.848 113.123 302.02 112.951C302.192 112.779 302.397 112.643 302.622 112.549C302.846 112.456 303.087 112.408 303.331 112.408C317.469 114.147 331.767 114.147 345.906 112.408C346.397 112.408 346.869 112.604 347.216 112.951C347.564 113.299 347.759 113.77 347.759 114.262V116.711C347.759 117.202 347.564 117.674 347.216 118.021C346.869 118.369 346.397 118.564 345.906 118.564V118.564Z" fill="#3F3D56"/>
<path d="M323.759 147.008C328.177 147.008 331.759 143.427 331.759 139.008C331.759 134.59 328.177 131.008 323.759 131.008C319.341 131.008 315.759 134.59 315.759 139.008C315.759 143.427 319.341 147.008 323.759 147.008Z" fill="white"/>
<path d="M344.326 155.839C344.569 158.176 344.248 160.537 343.39 162.724C342.532 164.911 341.161 166.861 339.394 168.409C337.627 169.957 335.514 171.059 333.233 171.621C330.952 172.184 328.569 172.192 326.284 171.643L297.69 164.778L298.374 149.522L326.407 143.045C328.435 142.576 330.54 142.544 332.582 142.95C334.624 143.357 336.556 144.193 338.25 145.402C339.945 146.612 341.363 148.168 342.41 149.968C343.457 151.767 344.11 153.768 344.326 155.839V155.839Z" fill="#FFB8B8"/>
<path d="M305.693 167.506L228.524 169.435C225.739 169.505 222.972 168.966 220.415 167.857C217.859 166.748 215.575 165.094 213.724 163.012C211.872 160.93 210.496 158.469 209.693 155.801C208.889 153.133 208.677 150.322 209.071 147.563V147.563C209.688 143.241 211.763 139.259 214.951 136.277L251.285 102.287C258.023 95.9834 266.42 91.7319 275.489 90.0314L288.223 87.6438L295.71 144.213L252.452 139.221L303.197 145.045L305.693 167.506Z" fill="#C50E4F"/>
<path d="M204.03 333.501H7.02301C5.27105 333.501 3.59087 332.805 2.35205 331.566C1.11323 330.327 0.417236 328.647 0.417236 326.895V326.895C71.8323 318.595 141.905 318.595 210.636 326.895C210.636 328.647 209.94 330.327 208.701 331.566C207.462 332.805 205.782 333.501 204.03 333.501Z" fill="#2F2E41"/>
<path d="M210.636 327.284L0.417236 326.895L24.7809 285.901L24.8975 285.706V195.359C24.8974 194.262 25.1133 193.176 25.5329 192.163C25.9525 191.15 26.5676 190.229 27.343 189.454C28.1184 188.679 29.039 188.063 30.0522 187.644C31.0654 187.224 32.1513 187.008 33.2479 187.008H176.64C177.736 187.008 178.822 187.224 179.835 187.644C180.848 188.063 181.769 188.679 182.545 189.454C183.32 190.229 183.935 191.15 184.355 192.163C184.774 193.176 184.99 194.262 184.99 195.359V286.328L210.636 327.284Z" fill="#3F3D56"/>
<path d="M33.0575 192.837C32.3364 192.838 31.645 193.125 31.1351 193.635C30.6251 194.145 30.3383 194.836 30.3375 195.557V277.935C30.3384 278.656 30.6252 279.347 31.1351 279.857C31.645 280.367 32.3364 280.654 33.0575 280.655H177.996C178.717 280.654 179.408 280.367 179.918 279.857C180.428 279.347 180.715 278.656 180.716 277.935V195.557C180.715 194.836 180.428 194.145 179.918 193.635C179.408 193.125 178.717 192.838 177.996 192.837L33.0575 192.837Z" fill="white"/>
<path d="M34.0101 291.535C33.7872 291.535 33.5691 291.599 33.3815 291.72C33.1938 291.84 33.0444 292.011 32.9509 292.213L25.4438 308.534C25.362 308.711 25.3262 308.906 25.3398 309.102C25.3533 309.297 25.4156 309.485 25.5211 309.65C25.6266 309.814 25.7718 309.95 25.9433 310.044C26.1148 310.137 26.3072 310.187 26.5027 310.187H184.375C184.574 310.187 184.769 310.136 184.943 310.039C185.116 309.942 185.262 309.803 185.366 309.634C185.471 309.465 185.53 309.272 185.539 309.073C185.548 308.875 185.506 308.677 185.417 308.499L177.257 292.179C177.161 291.985 177.012 291.822 176.828 291.708C176.644 291.594 176.431 291.534 176.215 291.535L34.0101 291.535Z" fill="#2F2E41"/>
<path d="M104.944 191.477C105.91 191.477 106.692 190.694 106.692 189.728C106.692 188.763 105.91 187.98 104.944 187.98C103.978 187.98 103.195 188.763 103.195 189.728C103.195 190.694 103.978 191.477 104.944 191.477Z" fill="white"/>
<path d="M89.4262 313.295C89.1699 313.295 88.9209 313.38 88.7175 313.536C88.5141 313.692 88.3677 313.91 88.3007 314.158L86.4176 321.152C86.371 321.325 86.3649 321.506 86.3996 321.681C86.4343 321.857 86.509 322.022 86.6179 322.164C86.7267 322.306 86.8668 322.421 87.0272 322.501C87.1877 322.58 87.3642 322.621 87.5431 322.621H123.356C123.541 322.621 123.725 322.577 123.89 322.491C124.055 322.406 124.197 322.283 124.305 322.131C124.413 321.98 124.483 321.805 124.509 321.621C124.536 321.437 124.518 321.249 124.457 321.074L122.036 314.079C121.956 313.85 121.808 313.652 121.61 313.511C121.413 313.371 121.177 313.295 120.934 313.295H89.4262Z" fill="#2F2E41"/>
<path d="M184.99 284.346V285.901H24.781L24.901 285.706V284.346H184.99Z" fill="#2F2E41"/>
<path d="M70.3774 226.441C83.8103 226.301 97.2415 226.061 110.674 225.878C115.152 225.817 119.63 225.764 124.108 225.718C127.967 225.678 127.977 219.678 124.108 219.718C110.675 219.858 97.244 220.098 83.8117 220.281C79.3337 220.341 74.8556 220.395 70.3774 220.441C66.5189 220.481 66.509 226.481 70.3774 226.441Z" fill="#C50E4F"/>
<path d="M70.3774 240.441L124.668 239.878L140.108 239.718C143.967 239.678 143.977 233.678 140.108 233.718L85.8178 234.281L70.3774 234.441C66.5188 234.481 66.509 240.481 70.3774 240.441Z" fill="#C50E4F"/>
<path d="M70.3774 254.441L124.668 253.878L140.108 253.718C143.967 253.678 143.977 247.678 140.108 247.718L85.8178 248.281L70.3774 248.441C66.5188 248.481 66.509 254.481 70.3774 254.441Z" fill="#C50E4F"/>
</svg>
